<svg width="523" height="90" viewBox="0 0 523 90" fill="none" xmlns="http://www.w3.org/2000/svg">
<path d="M168.83 12.1235V86.792H159.779V54.3225H119.277V86.792H110.227V12.1235H119.277V45.4981H159.779V12.1235H168.83Z" fill="black"/>
<path d="M204.242 29.0936C217.139 29.0936 227.661 35.2029 227.661 48.3264V76.1574V87.6971L218.61 87.8102V79.4383C214.424 84.7556 205.713 87.9234 198.472 87.9234C186.706 87.9234 178.108 82.9455 178.108 72.7634C178.108 64.844 183.765 58.8479 192.589 56.1327C199.151 54.0963 206.278 53.1912 218.61 52.9649V49.4578C218.61 41.9909 212.727 37.013 204.242 37.013C195.644 37.013 188.856 40.6333 185.801 47.7607L179.126 42.896C182.068 34.5241 191.005 29.0936 204.242 29.0936ZM187.159 72.7634C187.159 77.515 192.476 80.3434 198.925 80.3434C207.975 80.3434 218.61 75.2523 218.61 67.7855V60.2055C207.07 60.658 200.735 61.5631 195.417 63.0339C190.666 64.3915 187.159 67.7855 187.159 72.7634Z" fill="black"/>
<path d="M304.449 29.0936C315.31 29.0936 326.057 35.6554 326.057 50.5891V86.792H317.007V51.4942C317.007 41.199 311.124 37.013 303.657 37.013C294.832 37.013 286.913 43.6879 286.913 55.7933V86.792H277.862V51.4942C277.862 41.199 271.979 37.013 264.512 37.013C257.046 37.013 247.769 42.5566 247.769 56.5852V86.792H238.718V30.225H246.637L247.203 39.0494C251.276 32.1482 258.29 29.0936 265.304 29.0936C273.224 29.0936 281.03 32.6008 284.763 40.1808C288.271 32.4876 297.321 29.0936 304.449 29.0936Z" fill="black"/>
<path d="M341.282 19.8166C337.548 19.8166 334.494 16.762 334.494 13.0286C334.494 9.29513 337.548 6.24052 341.282 6.24052C345.015 6.24052 348.07 9.29513 348.07 13.0286C348.07 16.762 345.015 19.8166 341.282 19.8166ZM336.756 86.792V30.225H345.807V86.792H336.756Z" fill="black"/>
<path d="M357.121 4.2041H366.058V86.792H357.121V4.2041Z" fill="black"/>
<path d="M389.249 71.1795C389.249 76.7231 392.417 79.6646 397.395 79.6646C401.467 79.6646 404.635 77.515 407.577 75.818L410.518 82.8323C407.011 86.0001 402.146 87.9234 395.924 87.9234C387.552 87.9234 380.198 83.7374 380.198 72.7634V38.0312H368.885V30.225H380.198V14.1599H389.249V30.225H410.179V38.0312H389.249V71.1795Z" fill="black"/>
<path d="M410.488 58.7348C410.488 42.2172 423.725 28.9805 439.903 28.9805C456.081 28.9805 469.318 42.2172 469.318 58.7348C469.318 75.1392 456.081 87.6971 439.903 87.6971C423.725 87.6971 410.488 75.1392 410.488 58.7348ZM419.539 58.5085C419.539 70.1613 428.476 78.9858 439.903 78.9858C451.33 78.9858 460.267 70.1613 460.267 58.5085C460.267 46.8557 451.33 37.3524 439.903 37.3524C428.476 37.3524 419.539 46.8557 419.539 58.5085Z" fill="black"/>
<path d="M500.778 29.0936C512.883 29.0936 522.839 35.9948 522.839 50.5891V86.792H513.788V53.7569C513.788 41.199 507.679 37.013 499.873 37.013C491.614 37.013 482.337 42.2172 482.337 56.6983V86.792H473.286V30.225H481.206L481.771 39.0494C485.731 31.922 492.972 29.0936 500.778 29.0936Z" fill="black"/>
<path d="M40.1219 29.5088V0H50.5367V29.5088H40.1219Z" fill="#FFC100"/>
<path d="M37.1319 49.1966L0 34.3438L3.86799 24.6738L45.3293 41.2584L86.7906 24.6738L90.6586 34.3438L53.7082 49.124L80.6748 83.5812L72.473 90L45.4477 55.4677L20.0082 89.8859L11.6328 83.6954L37.1319 49.1966Z" fill="#FFC100"/>
</svg>
