<svg width="429" height="90" viewBox="0 0 429 90" fill="none" xmlns="http://www.w3.org/2000/svg">
<path d="M32.6293 87.9677C23.8483 87.6774 17.2127 85.6935 12.7224 82.0161C8.23216 78.2419 4.98919 74.0323 2.99351 69.3871C0.997838 64.6452 0 59.8548 0 55.0161C0 49.9839 0.947946 45.1452 2.84384 40.5C4.83951 35.7581 8.08249 31.5484 12.5728 27.871C17.1628 24.0968 22.9503 22.1613 29.9351 22.0645H78.4301C85.4149 22.1613 91.1525 24.0968 95.6428 27.871C100.233 31.5484 103.476 35.7581 105.372 40.5C107.367 45.1452 108.365 49.9839 108.365 55.0161C108.365 59.8548 107.367 64.6452 105.372 69.3871C103.376 74.0323 100.133 78.2419 95.6428 82.0161C91.1525 85.6935 84.5169 87.6774 75.7359 87.9677H32.6293ZM29.3364 41.5161C27.4405 41.5161 25.7941 42.2903 24.3971 43.8387C23.0002 45.2903 21.9524 47.0323 21.254 49.0645C20.6552 51 20.3559 52.9355 20.3559 54.871C20.3559 56.9032 20.6552 58.9355 21.254 60.9677C21.9524 62.9032 23.0002 64.6452 24.3971 66.1936C25.7941 67.6452 27.4405 68.4193 29.3364 68.5161H79.0288C80.9247 68.4193 82.5711 67.6452 83.9681 66.1936C85.3651 64.6452 86.3629 62.9032 86.9616 60.9677C87.6601 58.9355 88.0093 56.9032 88.0093 54.871C88.0093 52.9355 87.6601 51 86.9616 49.0645C86.3629 47.0323 85.3651 45.2903 83.9681 43.8387C82.5711 42.2903 80.9247 41.5161 79.0288 41.5161H29.3364Z" fill="white"/>
<path d="M220.622 30.4839C220.622 32.9032 219.624 34.9355 217.628 36.5806C215.733 38.129 213.388 38.9032 210.594 38.9032H147.281C145.984 38.9032 144.936 39.1452 144.138 39.629C143.339 40.1129 142.741 40.6452 142.342 41.2258C141.942 41.7097 141.743 42.1452 141.743 42.5323C141.743 43.0161 141.942 43.5484 142.342 44.129C142.741 44.6129 143.339 45.0968 144.138 45.5806C144.936 45.9677 145.984 46.2097 147.281 46.3064H196.225C202.511 46.4032 207.7 47.6129 211.791 49.9355C215.882 52.1613 218.776 54.8226 220.472 57.9194C222.268 60.9194 223.166 63.9677 223.166 67.0645C223.166 70.0645 222.268 73.1129 220.472 76.2097C218.676 79.2097 215.733 81.871 211.641 84.1935C207.65 86.4193 202.511 87.5323 196.225 87.5323C195.127 87.629 194.329 87.6774 193.83 87.6774H135.756C132.962 87.6774 130.567 86.9032 128.571 85.3548C126.676 83.7097 125.728 81.7258 125.728 79.4032C125.728 76.9839 126.725 74.9516 128.721 73.3064C130.617 71.7581 132.962 70.9839 135.756 70.9839H197.422C198.919 71.0806 200.116 70.8871 201.014 70.4032C202.012 69.9193 202.761 69.3871 203.26 68.8064C203.759 68.2258 204.008 67.6452 204.008 67.0645C204.008 66.7742 203.759 66.2903 203.26 65.6129C202.761 64.8387 202.012 64.2581 201.014 63.871C200.116 63.3871 198.919 63.0968 197.422 63H148.329C142.541 62.9032 137.752 61.7419 133.96 59.5161C130.168 57.1935 127.474 54.5323 125.877 51.5323C124.281 48.5323 123.482 45.5323 123.482 42.5323C123.482 39.5323 124.281 36.5806 125.877 33.6774C127.574 30.6774 130.268 28.1129 133.96 25.9839C137.752 23.7581 142.541 22.5484 148.329 22.3548C149.326 22.2581 150.075 22.2097 150.574 22.2097H210.594C213.388 22.2097 215.733 23.0323 217.628 24.6774C219.624 26.2258 220.622 28.1613 220.622 30.4839Z" fill="white"/>
<path d="M250.108 0C252.802 0.0967742 255.097 1.06452 256.993 2.90323C258.889 4.64516 259.887 6.82258 259.987 9.43548V80.5645C259.388 86.371 256.095 89.5161 250.108 90C247.314 90 244.869 89.129 242.774 87.3871C240.778 85.5484 239.78 83.2742 239.78 80.5645V9.43548C239.88 6.72581 240.928 4.5 242.924 2.75806C244.919 0.919355 247.314 0 250.108 0Z" fill="white"/>
<path d="M309.978 87.9677C301.197 87.6774 294.562 85.6935 290.072 82.0161C285.581 78.2419 282.338 74.0323 280.343 69.3871C278.347 64.6452 277.349 59.8548 277.349 55.0161C277.349 49.9839 278.297 45.1452 280.193 40.5C282.189 35.7581 285.432 31.5484 289.922 27.871C294.512 24.0968 300.299 22.1613 307.284 22.0645H355.779C362.764 22.1613 368.502 24.0968 372.992 27.871C377.582 31.5484 380.825 35.7581 382.721 40.5C384.716 45.1452 385.714 49.9839 385.714 55.0161C385.714 59.8548 384.716 64.6452 382.721 69.3871C380.725 74.0323 377.482 78.2419 372.992 82.0161C368.502 85.6935 361.866 87.6774 353.085 87.9677H309.978ZM306.686 41.5161C304.79 41.5161 303.143 42.2903 301.746 43.8387C300.349 45.2903 299.302 47.0323 298.603 49.0645C298.004 51 297.705 52.9355 297.705 54.871C297.705 56.9032 298.004 58.9355 298.603 60.9677C299.302 62.9032 300.349 64.6452 301.746 66.1936C303.143 67.6452 304.79 68.4193 306.686 68.5161H356.378C358.274 68.4193 359.92 67.6452 361.317 66.1936C362.714 64.6452 363.712 62.9032 364.311 60.9677C365.009 58.9355 365.358 56.9032 365.358 54.871C365.358 52.9355 365.009 51 364.311 49.0645C363.712 47.0323 362.714 45.2903 361.317 43.8387C359.92 42.2903 358.274 41.5161 356.378 41.5161H306.686Z" fill="white"/>
<circle cx="417.857" cy="79.2856" r="10.7143" fill="white"/>
</svg>
