<svg width="424" height="90" viewBox="0 0 424 90" fill="none" xmlns="http://www.w3.org/2000/svg">
<path d="M0 90V15H43.8214L56.0357 27.2143V62.7857L43.8214 75H15.2143V90H0ZM40.8214 27.8571H15.2143V62.1429H40.8214V27.8571Z" fill="white"/>
<path d="M66.4411 75V0H81.6554V15H109.941L121.727 26.7857V75H106.513V27.8571H81.6554V75H66.4411Z" fill="white"/>
<path d="M132.132 63.6429V26.3571L143.489 15H175.418L186.775 26.3571V63.6429L175.418 75H143.489L132.132 63.6429ZM147.347 62.5714H171.561V27.4286H147.347V62.5714Z" fill="white"/>
<path d="M196.376 63.6429V26.3571L207.733 15H249.948V48.6429H211.59V62.1429H247.805V75H207.733L196.376 63.6429ZM211.59 40.2857L236.662 39.2143V27H211.59V40.2857Z" fill="white"/>
<path d="M260.324 75V15H303.824L315.609 26.7857V75H300.395V28.2857H275.538V75H260.324Z" fill="white"/>
<path d="M326.765 75V15H341.979V75H326.765Z" fill="white"/>
<path d="M355.892 5.19727L373.088 43.7453L356.691 82.473H373.249L389.713 43.5865L372.587 5.19727H355.892Z" fill="white"/>
<path d="M406.848 5.19727L389.722 43.5865L406.186 82.473H422.744L406.347 43.7453L423.543 5.19727H406.848Z" fill="white"/>
</svg>
