<svg width="593" height="90" viewBox="0 0 593 90" fill="none" xmlns="http://www.w3.org/2000/svg">
<path d="M143.555 18.8223C147.719 18.8223 151.332 19.8507 154.392 21.9077C157.452 23.9646 159.66 26.4731 161.014 29.4331L154.241 31.766C153.439 29.9097 152.109 28.4297 150.253 27.326C148.447 26.1721 146.29 25.5951 143.781 25.5951C141.122 25.5951 138.94 26.2223 137.234 27.4765C135.528 28.7307 134.675 30.3613 134.675 32.368C134.675 34.2243 135.252 35.7545 136.406 36.9585C137.61 38.1626 139.567 39.2162 142.276 40.1192L146.49 41.5491C151.708 43.305 155.596 45.4874 158.155 48.0962C160.763 50.705 162.068 53.9158 162.068 57.7287C162.068 62.2941 160.161 65.9063 156.349 68.5653C152.586 71.2243 148.321 72.5538 143.555 72.5538C138.89 72.5538 134.826 71.425 131.364 69.1674C127.953 66.9097 125.57 63.9246 124.215 60.2121L130.687 57.3524C131.59 59.8107 133.195 61.8426 135.503 63.448C137.811 65.0033 140.495 65.7809 143.555 65.7809C146.465 65.7809 148.974 65.0785 151.081 63.6738C153.238 62.2691 154.317 60.2874 154.317 57.7287C154.317 55.3206 153.539 53.4894 151.984 52.2352C150.429 50.9308 147.97 49.7016 144.609 48.5477L140.244 46.9674C135.98 45.4623 132.694 43.5809 130.386 41.3233C128.078 39.0657 126.924 36.0806 126.924 32.368C126.924 28.4548 128.53 25.2189 131.74 22.6602C135.001 20.1016 138.94 18.8223 143.555 18.8223Z" fill="white"/>
<path d="M185.774 32.4433C188.734 32.4433 191.342 33.1206 193.6 34.4752C195.908 35.8297 197.413 37.4853 198.115 39.4419V32.8948H205.716V72.027H198.115V65.1789C197.363 67.1355 195.833 68.8663 193.525 70.3714C191.267 71.8264 188.683 72.5538 185.774 72.5538C183.616 72.5538 181.484 72.1274 179.377 71.2745C177.27 70.4216 175.288 69.2175 173.432 67.6623C171.626 66.0569 170.146 63.9497 168.992 61.3409C167.888 58.6819 167.336 55.7219 167.336 52.4609C167.336 49.2501 167.888 46.3402 168.992 43.7314C170.146 41.0724 171.626 38.9653 173.432 37.4101C175.288 35.8046 177.27 34.5755 179.377 33.7226C181.484 32.8697 183.616 32.4433 185.774 32.4433ZM194.955 42.3769C192.697 40.1192 190.013 38.9904 186.902 38.9904C183.792 38.9904 181.007 40.1945 178.549 42.6026C176.141 45.0107 174.937 48.2968 174.937 52.4609C174.937 56.6752 176.141 59.9863 178.549 62.3945C181.007 64.7525 183.792 65.9314 186.902 65.9314C190.013 65.9314 192.697 64.8026 194.955 62.545C197.262 60.2372 198.416 56.8758 198.416 52.4609C198.416 47.9958 197.262 44.6345 194.955 42.3769Z" fill="white"/>
<path d="M234.95 32.5185C239.064 32.5185 242.551 33.9233 245.41 36.7328C248.32 39.4921 249.775 43.7063 249.775 49.3755V72.027H242.174V49.6765C242.174 46.0141 241.372 43.3301 239.766 41.6243C238.211 39.9185 236.079 39.0657 233.37 39.0657C230.209 39.0657 227.5 40.2697 225.242 42.6779C222.984 45.0358 221.655 47.3185 221.254 49.526V72.027H213.653V32.8948H221.254V41.6243C221.504 39.8182 222.909 37.8616 225.468 35.7545C228.026 33.5972 231.187 32.5185 234.95 32.5185Z" fill="white"/>
<path d="M289.94 26.1972H265.257V42.4521H286.102V49.3755H265.257V72.027H257.28V19.349H289.94V26.1972Z" fill="white"/>
<path d="M317.948 32.5185C319.152 32.5185 320.206 32.5938 321.109 32.7443V39.743C320.356 39.6426 319.278 39.5924 317.873 39.5924C314.261 39.6426 311.226 40.8718 308.767 43.2799C306.309 45.688 304.829 48.9741 304.327 53.1382V72.027H296.727V32.8948H304.327V45.086C304.779 41.4738 306.158 38.4887 308.466 36.1307C310.824 33.7226 313.985 32.5185 317.948 32.5185Z" fill="white"/>
<path d="M342.164 32.4433C345.124 32.4433 347.733 33.1206 349.991 34.4752C352.298 35.8297 353.804 37.4853 354.506 39.4419V32.8948H362.107V72.027H354.506V65.1789C353.753 67.1355 352.223 68.8663 349.915 70.3714C347.658 71.8264 345.074 72.5538 342.164 72.5538C340.007 72.5538 337.875 72.1274 335.768 71.2745C333.661 70.4216 331.679 69.2175 329.823 67.6623C328.016 66.0569 326.536 63.9497 325.383 61.3409C324.279 58.6819 323.727 55.7219 323.727 52.4609C323.727 49.2501 324.279 46.3402 325.383 43.7314C326.536 41.0724 328.016 38.9653 329.823 37.4101C331.679 35.8046 333.661 34.5755 335.768 33.7226C337.875 32.8697 340.007 32.4433 342.164 32.4433ZM351.345 42.3769C349.088 40.1192 346.404 38.9904 343.293 38.9904C340.183 38.9904 337.398 40.1945 334.94 42.6026C332.532 45.0107 331.328 48.2968 331.328 52.4609C331.328 56.6752 332.532 59.9863 334.94 62.3945C337.398 64.7525 340.183 65.9314 343.293 65.9314C346.404 65.9314 349.088 64.8026 351.345 62.545C353.653 60.2372 354.807 56.8758 354.807 52.4609C354.807 47.9958 353.653 44.6345 351.345 42.3769Z" fill="white"/>
<path d="M391.341 32.5185C395.454 32.5185 398.941 33.9233 401.801 36.7328C404.711 39.4921 406.166 43.7063 406.166 49.3755V72.027H398.565V49.6765C398.565 46.0141 397.762 43.3301 396.157 41.6243C394.602 39.9185 392.469 39.0657 389.76 39.0657C386.599 39.0657 383.89 40.2697 381.633 42.6779C379.375 45.0358 378.046 47.3185 377.644 49.526V72.027H370.044V32.8948H377.644V41.6243C377.895 39.8182 379.3 37.8616 381.858 35.7545C384.417 33.5972 387.578 32.5185 391.341 32.5185Z" fill="white"/>
<path d="M431.957 32.4433C435.018 32.4433 438.053 33.246 441.063 34.8514C444.073 36.4067 446.481 38.6894 448.287 41.6996L441.439 44.1077C439.282 40.6962 436.121 38.9904 431.957 38.9904C428.897 38.9904 426.163 40.1945 423.755 42.6026C421.346 45.0107 420.142 48.3219 420.142 52.5362C420.142 56.7002 421.346 59.9863 423.755 62.3945C426.163 64.7525 428.897 65.9314 431.957 65.9314C433.814 65.9314 435.595 65.505 437.3 64.6521C439.056 63.7992 440.436 62.545 441.439 60.8894L448.287 63.2975C446.481 66.3077 444.073 68.6155 441.063 70.2209C438.053 71.7762 435.018 72.5538 431.957 72.5538C429.8 72.5538 427.618 72.1524 425.41 71.3497C423.203 70.4969 421.121 69.2928 419.164 67.7375C417.207 66.1321 415.602 64.025 414.348 61.4162C413.144 58.7572 412.542 55.7972 412.542 52.5362C412.542 49.2752 413.144 46.3152 414.348 43.6562C415.602 40.9972 417.207 38.8901 419.164 37.3348C421.121 35.7294 423.203 34.5253 425.41 33.7226C427.618 32.8697 429.8 32.4433 431.957 32.4433Z" fill="white"/>
<path d="M462.505 19.349V26.2724H454.753V19.349H462.505ZM462.505 32.8948V72.027H454.753V32.8948H462.505Z" fill="white"/>
<path d="M491.129 43.0541C489.524 40.2948 487.191 38.9152 484.131 38.9152C482.576 38.9152 481.296 39.3165 480.293 40.1192C479.34 40.8718 478.863 41.8501 478.863 43.0541C478.863 44.1579 479.189 45.086 479.841 45.8385C480.544 46.5911 481.748 47.2684 483.453 47.8704L487.894 49.4507C489.75 50.103 491.23 50.6799 492.333 51.1816C493.437 51.6833 494.591 52.3857 495.795 53.2887C496.999 54.1416 497.877 55.2202 498.429 56.5247C499.031 57.8291 499.332 59.3341 499.332 61.0399C499.332 64.6019 497.777 67.4114 494.666 69.4684C491.606 71.5253 488.169 72.5538 484.357 72.5538C480.794 72.5538 477.533 71.6257 474.573 69.7694C471.664 67.9131 469.782 65.4047 468.929 62.244L475.401 60.3626C476.104 62.1186 477.283 63.4982 478.938 64.5016C480.644 65.505 482.475 66.0067 484.432 66.0067C486.238 66.0067 487.843 65.5552 489.248 64.6521C490.653 63.6989 491.355 62.4697 491.355 60.9647C491.355 58.6569 489.624 56.9009 486.163 55.6968L481.572 53.966C477.86 52.6616 475.15 51.1816 473.445 49.526C471.789 47.8704 470.961 45.7382 470.961 43.1294C470.961 40.0189 472.241 37.4602 474.799 35.4535C477.358 33.4467 480.418 32.4433 483.98 32.4433C490.552 32.4433 495.218 35.4033 497.978 41.3233L491.129 43.0541Z" fill="white"/>
<path d="M523.253 32.4433C526.313 32.4433 529.349 33.246 532.359 34.8514C535.369 36.4067 537.777 38.6894 539.583 41.6996L532.735 44.1077C530.578 40.6962 527.417 38.9904 523.253 38.9904C520.193 38.9904 517.458 40.1945 515.05 42.6026C512.642 45.0107 511.438 48.3219 511.438 52.5362C511.438 56.7002 512.642 59.9863 515.05 62.3945C517.458 64.7525 520.193 65.9314 523.253 65.9314C525.109 65.9314 526.89 65.505 528.596 64.6521C530.352 63.7992 531.732 62.545 532.735 60.8894L539.583 63.2975C537.777 66.3077 535.369 68.6155 532.359 70.2209C529.349 71.7762 526.313 72.5538 523.253 72.5538C521.096 72.5538 518.913 72.1524 516.706 71.3497C514.498 70.4969 512.416 69.2928 510.46 67.7375C508.503 66.1321 506.898 64.025 505.643 61.4162C504.439 58.7572 503.837 55.7972 503.837 52.5362C503.837 49.2752 504.439 46.3152 505.643 43.6562C506.898 40.9972 508.503 38.8901 510.46 37.3348C512.416 35.7294 514.498 34.5253 516.706 33.7226C518.913 32.8697 521.096 32.4433 523.253 32.4433Z" fill="white"/>
<path d="M562.555 32.4433C564.662 32.4433 566.819 32.8697 569.026 33.7226C571.284 34.5755 573.391 35.8046 575.348 37.4101C577.304 38.9653 578.885 41.0724 580.089 43.7314C581.343 46.3904 581.97 49.3253 581.97 52.5362C581.97 55.7972 581.343 58.7572 580.089 61.4162C578.885 64.025 577.304 66.1321 575.348 67.7375C573.391 69.2928 571.309 70.4969 569.102 71.3497C566.894 72.1524 564.712 72.5538 562.555 72.5538C560.397 72.5538 558.215 72.1524 556.007 71.3497C553.8 70.4969 551.693 69.2928 549.686 67.7375C547.729 66.1321 546.124 64.025 544.87 61.4162C543.666 58.7572 543.064 55.7972 543.064 52.5362C543.064 49.3253 543.666 46.3904 544.87 43.7314C546.124 41.0724 547.729 38.9653 549.686 37.4101C551.693 35.8046 553.8 34.5755 556.007 33.7226C558.215 32.8697 560.397 32.4433 562.555 32.4433ZM562.555 38.9904C559.494 38.9904 556.735 40.1945 554.277 42.6026C551.868 44.9606 550.664 48.2718 550.664 52.5362C550.664 56.7504 551.868 60.0365 554.277 62.3945C556.735 64.7525 559.494 65.9314 562.555 65.9314C565.565 65.9314 568.274 64.7525 570.682 62.3945C573.14 60.0365 574.369 56.7504 574.369 52.5362C574.369 48.2718 573.14 44.9606 570.682 42.6026C568.274 40.1945 565.565 38.9904 562.555 38.9904Z" fill="white"/>
<path d="M0 28.5629C0 12.788 12.788 0 28.5629 0V28.5629H0Z" fill="white"/>
<path d="M0 28.5629H28.5629V57.1257C12.788 57.1257 0 44.3377 0 28.5629Z" fill="white"/>
<path d="M0 75.7186C0 67.8311 6.39402 61.4371 14.2814 61.4371C22.1689 61.4371 28.5629 67.8311 28.5629 75.7186C28.5629 83.606 22.1689 90 14.2814 90C6.39402 90 0 83.606 0 75.7186Z" fill="white"/>
<path d="M32.8743 14.2814C32.8743 6.39402 39.2683 0 47.1557 0C55.0431 0 61.4371 6.39402 61.4371 14.2814C61.4371 22.1689 55.0431 28.5629 47.1557 28.5629C39.2683 28.5629 32.8743 22.1689 32.8743 14.2814Z" fill="white"/>
<path d="M32.8743 32.8743C48.6491 32.8743 61.4371 45.6623 61.4371 61.4371H32.8743V32.8743Z" fill="white"/>
<path d="M80.0299 0H65.7485V28.5629H80.0299C87.9173 28.5629 94.3114 22.1688 94.3114 14.2814C94.3114 6.39404 87.9173 0 80.0299 0Z" fill="white"/>
<path d="M32.8743 61.4371H61.4371C61.4371 77.212 48.6491 90 32.8743 90V61.4371Z" fill="white"/>
<path d="M80.0297 32.873C72.1423 32.873 65.7483 39.2671 65.7483 47.1545C65.7483 55.0419 72.1423 61.4359 80.0297 61.4359C87.9171 61.4359 94.3112 55.0419 94.3112 47.1545C94.3112 39.2671 87.9171 32.873 80.0297 32.873Z" fill="white"/>
<path d="M580.842 18.3622C580.812 18.0267 580.676 17.766 580.435 17.5799C580.197 17.3909 579.857 17.2963 579.415 17.2963C579.122 17.2963 578.878 17.3344 578.683 17.4107C578.488 17.4869 578.342 17.5921 578.244 17.7263C578.146 17.8575 578.096 18.0084 578.093 18.1792C578.087 18.3195 578.114 18.443 578.175 18.5497C578.239 18.6565 578.331 18.751 578.45 18.8333C578.572 18.9126 578.718 18.9828 578.889 19.0438C579.06 19.1047 579.252 19.1581 579.465 19.2039L580.271 19.3868C580.734 19.4875 581.143 19.6217 581.496 19.7894C581.853 19.9571 582.152 20.1569 582.393 20.3886C582.637 20.6204 582.822 20.8872 582.947 21.1892C583.072 21.4911 583.136 21.8296 583.139 22.2047C583.136 22.7963 582.986 23.3041 582.69 23.728C582.395 24.1518 581.969 24.4766 581.414 24.7023C580.862 24.928 580.196 25.0408 579.415 25.0408C578.631 25.0408 577.948 24.9234 577.366 24.6886C576.783 24.4538 576.33 24.097 576.007 23.6182C575.684 23.1394 575.518 22.534 575.509 21.8021H577.677C577.695 22.104 577.776 22.3556 577.919 22.5569C578.063 22.7582 578.259 22.9107 578.509 23.0143C578.762 23.118 579.055 23.1699 579.388 23.1699C579.693 23.1699 579.952 23.1287 580.165 23.0464C580.382 22.964 580.548 22.8497 580.664 22.7033C580.78 22.5569 580.839 22.3892 580.842 22.2001C580.839 22.0232 580.784 21.8723 580.678 21.7472C580.571 21.6191 580.406 21.5094 580.184 21.4179C579.964 21.3233 579.683 21.2364 579.342 21.1571L578.363 20.9284C577.552 20.7424 576.913 20.442 576.446 20.0273C575.98 19.6095 575.748 19.0453 575.751 18.3347C575.748 17.7553 575.903 17.2475 576.218 16.8114C576.532 16.3753 576.966 16.0353 577.521 15.7913C578.076 15.5474 578.709 15.4254 579.42 15.4254C580.145 15.4254 580.775 15.5489 581.309 15.7959C581.846 16.0399 582.262 16.383 582.558 16.8252C582.854 17.2674 583.004 17.7797 583.011 18.3622H580.842ZM584.282 24.9219V15.5535H590.677V17.3924H586.547V19.3136H590.27V21.1571H586.547V24.9219H584.282Z" fill="white"/>
</svg>
