<svg width="477" height="90" viewBox="0 0 477 90" fill="none" xmlns="http://www.w3.org/2000/svg">
<path d="M129.458 70.2372V7.99976H153.283C157.781 7.99976 161.519 8.70884 164.497 10.127C167.495 11.5249 169.734 13.4395 171.213 15.8706C172.712 18.3017 173.462 21.0571 173.462 24.1365C173.462 26.669 172.976 28.8367 172.003 30.6398C171.031 32.4227 169.724 33.8712 168.083 34.9855C166.442 36.0998 164.608 36.9 162.582 37.3863V37.9941C164.791 38.1156 166.908 38.7943 168.934 40.0301C170.98 41.2457 172.651 42.9678 173.948 45.1963C175.245 47.4249 175.893 50.1194 175.893 53.2799C175.893 56.5012 175.113 59.3983 173.553 61.9713C171.993 64.524 169.643 66.5398 166.503 68.0188C163.362 69.4977 159.412 70.2372 154.651 70.2372H129.458ZM140.732 60.8165H152.858C156.95 60.8165 159.898 60.0365 161.701 58.4765C163.524 56.8962 164.436 54.8703 164.436 52.3986C164.436 50.555 163.98 48.8937 163.069 47.4148C162.157 45.9156 160.86 44.7405 159.179 43.8896C157.497 43.0184 155.492 42.5829 153.162 42.5829H140.732V60.8165ZM140.732 34.4689H151.885C153.83 34.4689 155.583 34.1144 157.143 33.4053C158.703 32.6759 159.928 31.6528 160.82 30.3359C161.732 28.9988 162.187 27.4186 162.187 25.5952C162.187 23.1843 161.336 21.1989 159.635 19.6389C157.953 18.0789 155.451 17.2989 152.128 17.2989H140.732V34.4689Z" fill="white"/>
<path d="M185.215 70.2372V23.5591H195.882V31.3388H196.368C197.219 28.6443 198.677 26.5677 200.744 25.109C202.831 23.63 205.211 22.8905 207.885 22.8905C208.493 22.8905 209.172 22.9209 209.921 22.9817C210.691 23.0222 211.329 23.0931 211.836 23.1944V33.3141C211.37 33.152 210.631 33.0102 209.618 32.8886C208.625 32.7468 207.663 32.6759 206.731 32.6759C204.725 32.6759 202.922 33.1115 201.321 33.9827C199.741 34.8336 198.495 36.0188 197.583 37.5382C196.672 39.0577 196.216 40.8101 196.216 42.7956V70.2372H185.215Z" fill="white"/>
<path d="M237.583 71.1489C233.025 71.1489 229.074 70.146 225.732 68.1403C222.389 66.1346 219.795 63.3287 217.952 59.7225C216.128 56.1163 215.217 51.9023 215.217 47.0805C215.217 42.2587 216.128 38.0346 217.952 34.4081C219.795 30.7816 222.389 27.9656 225.732 25.9599C229.074 23.9542 233.025 22.9513 237.583 22.9513C242.142 22.9513 246.092 23.9542 249.435 25.9599C252.778 27.9656 255.361 30.7816 257.184 34.4081C259.028 38.0346 259.95 42.2587 259.95 47.0805C259.95 51.9023 259.028 56.1163 257.184 59.7225C255.361 63.3287 252.778 66.1346 249.435 68.1403C246.092 70.146 242.142 71.1489 237.583 71.1489ZM237.644 62.3359C240.116 62.3359 242.182 61.6572 243.844 60.2999C245.505 58.9222 246.741 57.0786 247.551 54.769C248.382 52.4594 248.797 49.8864 248.797 47.0501C248.797 44.1935 248.382 41.6104 247.551 39.3008C246.741 36.971 245.505 35.1172 243.844 33.7396C242.182 32.3619 240.116 31.6731 237.644 31.6731C235.112 31.6731 233.005 32.3619 231.323 33.7396C229.662 35.1172 228.416 36.971 227.585 39.3008C226.775 41.6104 226.37 44.1935 226.37 47.0501C226.37 49.8864 226.775 52.4594 227.585 54.769C228.416 57.0786 229.662 58.9222 231.323 60.2999C233.005 61.6572 235.112 62.3359 237.644 62.3359Z" fill="white"/>
<path d="M289.648 71.1489C285.09 71.1489 281.139 70.146 277.796 68.1403C274.453 66.1346 271.86 63.3287 270.016 59.7225C268.193 56.1163 267.281 51.9023 267.281 47.0805C267.281 42.2587 268.193 38.0346 270.016 34.4081C271.86 30.7816 274.453 27.9656 277.796 25.9599C281.139 23.9542 285.09 22.9513 289.648 22.9513C294.206 22.9513 298.157 23.9542 301.5 25.9599C304.843 27.9656 307.426 30.7816 309.249 34.4081C311.093 38.0346 312.015 42.2587 312.015 47.0805C312.015 51.9023 311.093 56.1163 309.249 59.7225C307.426 63.3287 304.843 66.1346 301.5 68.1403C298.157 70.146 294.206 71.1489 289.648 71.1489ZM289.709 62.3359C292.18 62.3359 294.247 61.6572 295.908 60.2999C297.569 58.9222 298.805 57.0786 299.616 54.769C300.446 52.4594 300.862 49.8864 300.862 47.0501C300.862 44.1935 300.446 41.6104 299.616 39.3008C298.805 36.971 297.569 35.1172 295.908 33.7396C294.247 32.3619 292.18 31.6731 289.709 31.6731C287.176 31.6731 285.069 32.3619 283.388 33.7396C281.726 35.1172 280.48 36.971 279.65 39.3008C278.839 41.6104 278.434 44.1935 278.434 47.0501C278.434 49.8864 278.839 52.4594 279.65 54.769C280.48 57.0786 281.726 58.9222 283.388 60.2999C285.069 61.6572 287.176 62.3359 289.709 62.3359Z" fill="white"/>
<path d="M331.38 55.5895L331.35 42.3093H333.112L349.887 23.5591H362.742L342.108 46.5335H339.828L331.38 55.5895ZM321.352 70.2372V7.99976H332.353V70.2372H321.352ZM350.647 70.2372L335.452 48.995L342.867 41.2457L363.806 70.2372H350.647Z" fill="white"/>
<path d="M381.074 7.99976V70.2372H370.073V7.99976H381.074Z" fill="white"/>
<path d="M407.945 90.0001C407.945 90.0001 398.811 90.0001 396.878 90.0001L402.444 71.2096L385.517 23.5591H397.187L407.945 58.8108H408.431L419.219 23.5591H430.919L412.229 75.8896C407.64 88.91 407.945 90.0001 407.945 90.0001Z" fill="white"/>
<path d="M446.37 42.8867V70.2372H435.369V23.5591H445.884V31.4907H446.431C447.505 28.8772 449.217 26.8006 451.567 25.2609C453.937 23.7212 456.865 22.9513 460.35 22.9513C463.571 22.9513 466.377 23.6401 468.767 25.0178C471.178 26.3955 473.042 28.391 474.359 31.0045C475.696 33.618 476.355 36.7886 476.334 40.5164V70.2372H465.333V42.2182C465.333 39.0982 464.523 36.6569 462.902 34.8943C461.302 33.1318 459.083 32.2505 456.247 32.2505C454.322 32.2505 452.61 32.6759 451.111 33.5268C449.632 34.3575 448.467 35.5629 447.616 37.1432C446.786 38.7234 446.37 40.6379 446.37 42.8867Z" fill="white"/>
<path d="M33.2012 42.6873C33.2012 50.5458 26.8307 56.9164 18.9721 56.9164C11.1136 56.9164 4.74303 50.5458 4.74303 42.6873C4.74303 34.8288 11.1136 28.4582 18.9721 28.4582C26.8307 28.4582 33.2012 34.8288 33.2012 42.6873Z" fill="white"/>
<path fill-rule="evenodd" clip-rule="evenodd" d="M15.1724 17.0984C11.7543 22.2255 9.48607 29.5818 9.48607 37.9443C9.48607 46.3068 11.7543 53.663 15.1724 58.7901C18.6126 63.9504 22.8443 66.4025 26.8772 66.4025C30.9101 66.4025 35.1418 63.9504 38.582 58.7901C42 53.663 44.2683 46.3068 44.2683 37.9443C44.2683 29.5818 42 22.2255 38.582 17.0984C35.1418 11.9381 30.9101 9.48607 26.8772 9.48607C22.8443 9.48607 18.6126 11.9381 15.1724 17.0984ZM7.27954 11.8365C11.8503 4.98027 18.6857 0 26.8772 0C35.0686 0 41.904 4.98027 46.4748 11.8365C51.0678 18.7259 53.7544 27.9702 53.7544 37.9443C53.7544 47.9183 51.0678 57.1627 46.4748 64.0521C41.904 70.9083 35.0686 75.8885 26.8772 75.8885C18.6857 75.8885 11.8503 70.9083 7.27954 64.0521C2.68662 57.1627 0 47.9183 0 37.9443C0 27.9702 2.68662 18.7259 7.27954 11.8365Z" fill="white"/>
<path d="M94.8607 42.6873C94.8607 50.5458 88.4901 56.9164 80.6316 56.9164C72.7731 56.9164 66.4025 50.5458 66.4025 42.6873C66.4025 34.8288 72.7731 28.4582 80.6316 28.4582C88.4901 28.4582 94.8607 34.8288 94.8607 42.6873Z" fill="white"/>
<path fill-rule="evenodd" clip-rule="evenodd" d="M75.2509 17.0984C71.8328 22.2255 69.5645 29.5818 69.5645 37.9443C69.5645 46.3068 71.8328 53.663 75.2509 58.7901C78.691 63.9504 82.9227 66.4025 86.9556 66.4025C90.9885 66.4025 95.2202 63.9504 98.6604 58.7901C102.078 53.663 104.347 46.3068 104.347 37.9443C104.347 29.5818 102.078 22.2255 98.6604 17.0984C95.2202 11.9381 90.9885 9.48607 86.9556 9.48607C82.9227 9.48607 78.691 11.9381 75.2509 17.0984ZM67.358 11.8365C71.9288 4.98027 78.7642 0 86.9556 0C95.1471 0 101.982 4.98027 106.553 11.8365C111.146 18.7259 113.833 27.9702 113.833 37.9443C113.833 47.9183 111.146 57.1627 106.553 64.0521C101.982 70.9083 95.1471 75.8885 86.9556 75.8885C78.7642 75.8885 71.9288 70.9083 67.358 64.0521C62.7651 57.1627 60.0784 47.9183 60.0784 37.9443C60.0784 27.9702 62.7651 18.7259 67.358 11.8365Z" fill="white"/>
</svg>
