<svg width="343" height="90" viewBox="0 0 343 90" fill="none" xmlns="http://www.w3.org/2000/svg">
<path d="M106.21 60.875V27.789H115.746L124.608 46.7641C124.832 47.2457 125.121 47.9199 125.475 48.7868C125.828 49.6216 126.181 50.4885 126.534 51.3875C126.919 52.2864 127.273 53.1212 127.594 53.8918H127.883C128.172 53.2175 128.493 52.447 128.846 51.5801C129.199 50.7132 129.552 49.8624 129.905 49.0276C130.291 48.1607 130.612 47.4383 130.868 46.8604L139.73 27.789H149.121V60.875H142.86V40.118C142.86 39.5401 142.86 38.8979 142.86 38.1916C142.892 37.4852 142.925 36.7789 142.957 36.0725C142.989 35.3662 143.021 34.7562 143.053 34.2425H142.668C142.507 34.7241 142.298 35.2859 142.042 35.9281C141.785 36.5702 141.512 37.2123 141.223 37.8545C140.966 38.4966 140.725 39.0585 140.5 39.5401L130.628 60.875H124.511L114.59 39.5401C114.301 38.93 114.012 38.304 113.723 37.6618C113.435 36.9876 113.178 36.3615 112.953 35.7836C112.76 35.1736 112.584 34.6598 112.423 34.2425H112.038C112.07 34.692 112.086 35.2538 112.086 35.9281C112.118 36.6023 112.134 37.3087 112.134 38.0471C112.166 38.7535 112.182 39.4437 112.182 40.118V60.875H106.21ZM158.98 60.875V27.789H165.192V60.875H158.98ZM175.064 60.875V27.789H181.277V55.3847H202.13V60.875H175.064ZM205.08 60.875L221.791 27.789H228.871L245.582 60.875H238.744L235.18 53.7473H215.049L211.485 60.875H205.08ZM217.553 48.6423H232.676L228.293 39.6364C228.132 39.2832 227.892 38.7856 227.571 38.1434C227.282 37.4692 226.977 36.7789 226.656 36.0725C226.367 35.3662 226.094 34.7401 225.837 34.1943C225.58 33.6485 225.403 33.3114 225.307 33.1829H224.922C224.633 33.8251 224.296 34.5796 223.91 35.4465C223.525 36.2812 223.156 37.0839 222.803 37.8545C222.45 38.625 222.161 39.2351 221.936 39.6846L217.553 48.6423ZM251.914 60.875V27.789H257.837L277.342 47.1012C277.727 47.4544 278.177 47.9199 278.691 48.4979C279.236 49.0437 279.782 49.6055 280.328 50.1835C280.906 50.7614 281.388 51.2751 281.773 51.7246H282.158C282.126 51.0824 282.094 50.2798 282.062 49.3166C282.03 48.3534 282.014 47.5346 282.014 46.8604V27.789H287.986V60.875H282.255L262.702 41.3702C261.899 40.5675 261.064 39.7006 260.197 38.7695C259.33 37.8384 258.64 37.1 258.126 36.5541H257.789C257.821 37.0357 257.837 37.7903 257.837 38.8177C257.869 39.8451 257.886 40.9528 257.886 42.1407V60.875H251.914ZM317.511 61.4529C313.177 61.4529 309.437 60.7947 306.29 59.4784C303.144 58.162 300.72 56.2356 299.018 53.6991C297.316 51.1306 296.466 48.0162 296.466 44.3561C296.466 40.6317 297.316 37.5173 299.018 35.013C300.72 32.4766 303.144 30.5502 306.29 29.2338C309.437 27.8853 313.177 27.2111 317.511 27.2111C321.878 27.2111 325.634 27.8853 328.781 29.2338C331.96 30.5502 334.384 32.4766 336.053 35.013C337.755 37.5173 338.606 40.6317 338.606 44.3561C338.606 48.0162 337.755 51.1306 336.053 53.6991C334.384 56.2356 331.96 58.162 328.781 59.4784C325.634 60.7947 321.878 61.4529 317.511 61.4529ZM317.56 56.2035C319.647 56.2035 321.573 55.9787 323.339 55.5292C325.137 55.0797 326.694 54.3894 328.01 53.4583C329.359 52.5272 330.402 51.3393 331.141 49.8945C331.879 48.4497 332.248 46.7641 332.248 44.8377V43.73C332.248 41.8357 331.879 40.1822 331.141 38.7695C330.402 37.3247 329.359 36.1368 328.01 35.2057C326.694 34.2746 325.137 33.5843 323.339 33.1348C321.573 32.6853 319.647 32.4605 317.56 32.4605C315.441 32.4605 313.482 32.6853 311.684 33.1348C309.918 33.5843 308.361 34.2746 307.013 35.2057C305.696 36.1368 304.669 37.3247 303.93 38.7695C303.224 40.1822 302.871 41.8357 302.871 43.73V44.8377C302.871 46.7641 303.224 48.4497 303.93 49.8945C304.669 51.3393 305.696 52.5272 307.013 53.4583C308.361 54.3894 309.918 55.0797 311.684 55.5292C313.482 55.9787 315.441 56.2035 317.56 56.2035Z" fill="#262524"/>
<rect width="90" height="90" rx="5.625" fill="#1A1A1A"/>
<path fill-rule="evenodd" clip-rule="evenodd" d="M22.5 28.125L27.69 26.6226L45 54.0141L62.31 26.6226L67.5 28.125V61.875H61.875V37.8403L47.3775 60.7814H42.6225L28.125 37.8403V61.875H22.5V28.125Z" fill="#BF8C4E"/>
</svg>
