<svg width="346" height="90" viewBox="0 0 346 90" fill="none" xmlns="http://www.w3.org/2000/svg">
<path d="M147.85 70.3698H136.714L118.09 42.173V70.3698H106.955V24.6558H118.09L136.714 52.9828V24.6558H147.85V70.3698Z" fill="#161616"/>
<path d="M153.707 52.1363C153.707 48.4028 154.402 45.1251 155.791 42.3032C157.224 39.4814 159.156 37.3107 161.587 35.7913C164.018 34.2718 166.731 33.5121 169.727 33.5121C172.288 33.5121 174.524 34.033 176.434 35.075C178.388 36.1169 179.885 37.4844 180.927 39.1775V34.033H192.063V70.3698H180.927V65.2253C179.842 66.9184 178.323 68.286 176.369 69.3279C174.459 70.3698 172.223 70.8907 169.662 70.8907C166.71 70.8907 164.018 70.131 161.587 68.6115C159.156 67.0487 157.224 64.8563 155.791 62.0345C154.402 59.1692 153.707 55.8698 153.707 52.1363ZM180.927 52.2014C180.927 49.423 180.146 47.2306 178.583 45.6243C177.064 44.0181 175.197 43.2149 172.983 43.2149C170.769 43.2149 168.88 44.0181 167.317 45.6243C165.798 47.1872 165.038 49.3579 165.038 52.1363C165.038 54.9147 165.798 57.1288 167.317 58.7785C168.88 60.3848 170.769 61.1879 172.983 61.1879C175.197 61.1879 177.064 60.3848 178.583 58.7785C180.146 57.1722 180.927 54.9798 180.927 52.2014Z" fill="#161616"/>
<path d="M205.719 30.2561C203.766 30.2561 202.159 29.6917 200.9 28.563C199.685 27.3908 199.077 25.9582 199.077 24.2651C199.077 22.5286 199.685 21.096 200.9 19.9672C202.159 18.7951 203.766 18.209 205.719 18.209C207.629 18.209 209.192 18.7951 210.408 19.9672C211.667 21.096 212.296 22.5286 212.296 24.2651C212.296 25.9582 211.667 27.3908 210.408 28.563C209.192 29.6917 207.629 30.2561 205.719 30.2561ZM211.254 34.033V70.3698H200.119V34.033H211.254Z" fill="#161616"/>
<path d="M230.459 40.0892C231.762 38.0922 233.39 36.5293 235.343 35.4006C237.297 34.2284 239.468 33.6423 241.855 33.6423V45.429H238.795C236.016 45.429 233.933 46.0368 232.543 47.2523C231.154 48.4245 230.459 50.5083 230.459 53.5038V70.3698H219.324V34.033H230.459V40.0892Z" fill="#161616"/>
<path d="M263.718 70.8907C260.158 70.8907 256.946 70.131 254.081 68.6115C251.259 67.0921 249.023 64.9214 247.373 62.0996C245.767 59.2777 244.964 55.9783 244.964 52.2014C244.964 48.4679 245.789 45.1902 247.438 42.3684C249.088 39.5031 251.346 37.3107 254.211 35.7913C257.076 34.2718 260.289 33.5121 263.849 33.5121C267.408 33.5121 270.621 34.2718 273.486 35.7913C276.351 37.3107 278.609 39.5031 280.259 42.3684C281.908 45.1902 282.733 48.4679 282.733 52.2014C282.733 55.9349 281.887 59.2343 280.194 62.0996C278.544 64.9214 276.265 67.0921 273.356 68.6115C270.491 70.131 267.278 70.8907 263.718 70.8907ZM263.718 61.253C265.846 61.253 267.647 60.4716 269.123 58.9087C270.643 57.3459 271.402 55.1101 271.402 52.2014C271.402 49.2927 270.664 47.057 269.188 45.4941C267.756 43.9312 265.976 43.1498 263.849 43.1498C261.678 43.1498 259.876 43.9312 258.444 45.4941C257.011 47.0135 256.295 49.2493 256.295 52.2014C256.295 55.1101 256.989 57.3459 258.378 58.9087C259.811 60.4716 261.591 61.253 263.718 61.253Z" fill="#161616"/>
<path d="M299.776 39.1775C300.818 37.4844 302.316 36.1169 304.269 35.075C306.223 34.033 308.459 33.5121 310.977 33.5121C313.972 33.5121 316.686 34.2718 319.117 35.7913C321.548 37.3107 323.458 39.4814 324.847 42.3032C326.28 45.1251 326.996 48.4028 326.996 52.1363C326.996 55.8698 326.28 59.1692 324.847 62.0345C323.458 64.8563 321.548 67.0487 319.117 68.6115C316.686 70.131 313.972 70.8907 310.977 70.8907C308.415 70.8907 306.18 70.3915 304.269 69.393C302.359 68.3511 300.862 66.9836 299.776 65.2905V70.3698H288.641V22.1813H299.776V39.1775ZM315.665 52.1363C315.665 49.3579 314.884 47.1872 313.321 45.6243C311.802 44.0181 309.913 43.2149 307.656 43.2149C305.442 43.2149 303.553 44.0181 301.99 45.6243C300.471 47.2306 299.711 49.423 299.711 52.2014C299.711 54.9798 300.471 57.1722 301.99 58.7785C303.553 60.3848 305.442 61.1879 307.656 61.1879C309.87 61.1879 311.758 60.3848 313.321 58.7785C314.884 57.1288 315.665 54.9147 315.665 52.1363Z" fill="#161616"/>
<path d="M338.438 30.2561C336.485 30.2561 334.879 29.6917 333.62 28.563C332.404 27.3908 331.796 25.9582 331.796 24.2651C331.796 22.5286 332.404 21.096 333.62 19.9672C334.879 18.7951 336.485 18.209 338.438 18.209C340.349 18.209 341.911 18.7951 343.127 19.9672C344.386 21.096 345.015 22.5286 345.015 24.2651C345.015 25.9582 344.386 27.3908 343.127 28.563C341.911 29.6917 340.349 30.2561 338.438 30.2561ZM343.974 34.033V70.3698H332.838V34.033H343.974Z" fill="#161616"/>
<path fill-rule="evenodd" clip-rule="evenodd" d="M88.7959 90.0009L0.454875 37.9467L0.770996 2.31934L89.112 54.3736L88.7959 90.0009Z" fill="#5030E5"/>
<path d="M51.0562 0.446289C51.0113 5.49932 51.9622 10.5117 53.8545 15.1973C55.7468 19.8828 58.5434 24.1498 62.0847 27.7545C65.6261 31.3593 69.8427 34.2312 74.494 36.2063C79.1452 38.1814 84.1399 39.2211 89.193 39.2659L89.5344 0.787709L51.0562 0.446289Z" fill="#5030E5"/>
<path d="M38.4814 89.248C38.5263 84.195 37.5754 79.1826 35.6831 74.4971C33.7908 69.8115 30.9942 65.5446 27.4528 61.9398C23.9115 58.3351 19.6949 55.4632 15.0436 53.488C10.3924 51.5129 5.39766 50.4732 0.344621 50.4284L0.00320751 88.9066L38.4814 89.248Z" fill="#5030E5"/>
</svg>
