<svg width="322" height="139" viewBox="0 0 322 139" fill="none" xmlns="http://www.w3.org/2000/svg">
<path d="M139.972 94.3282C136.046 94.3282 132.699 93.6143 129.933 92.1866C127.211 90.7588 124.869 88.8403 122.906 86.431L128.126 81.5454C129.777 83.5531 131.584 85.0701 133.547 86.0963C135.555 87.1225 137.83 87.6356 140.373 87.6356C143.363 87.6356 145.616 86.9664 147.133 85.6278C148.65 84.2893 149.408 82.4823 149.408 80.2069C149.408 78.3776 148.873 76.9275 147.802 75.8567C146.731 74.7859 144.835 73.9828 142.113 73.4473L137.964 72.7112C133.413 71.8634 130 70.3688 127.724 68.2271C125.449 66.0855 124.311 63.1408 124.311 59.3929C124.311 57.3405 124.69 55.4889 125.449 53.8381C126.252 52.1426 127.345 50.7372 128.728 49.6218C130.156 48.4617 131.874 47.5694 133.882 46.9447C135.889 46.3201 138.143 46.0078 140.641 46.0078C144.166 46.0078 147.222 46.6324 149.81 47.8817C152.398 49.0864 154.606 50.8487 156.436 53.1688L151.148 57.8536C149.944 56.292 148.471 55.0428 146.731 54.1058C144.991 53.1688 142.827 52.7004 140.24 52.7004C137.563 52.7004 135.488 53.2358 134.015 54.3066C132.543 55.3774 131.807 56.939 131.807 58.9914C131.807 60.9545 132.409 62.4269 133.614 63.4085C134.819 64.3454 136.692 65.0593 139.236 65.5501L143.385 66.4201C148.07 67.3125 151.483 68.8295 153.625 70.9711C155.811 73.1127 156.904 76.0575 156.904 79.8053C156.904 81.9915 156.525 83.977 155.766 85.7617C155.008 87.5464 153.892 89.0857 152.42 90.3796C150.992 91.6289 149.23 92.6104 147.133 93.3243C145.036 93.9936 142.649 94.3282 139.972 94.3282Z" fill="white"/>
<path d="M175.553 94.3282C173.055 94.3282 170.824 93.9043 168.861 93.0566C166.898 92.2089 165.247 91.0042 163.908 89.4426C162.57 87.8364 161.544 85.9179 160.83 83.687C160.116 81.4115 159.759 78.8906 159.759 76.1244C159.759 73.3581 160.116 70.8596 160.83 68.6287C161.544 66.3532 162.57 64.4347 163.908 62.8731C165.247 61.2669 166.898 60.0399 168.861 59.1922C170.824 58.3444 173.055 57.9206 175.553 57.9206C179.033 57.9206 181.889 58.7014 184.12 60.263C186.351 61.8246 187.979 63.8993 189.005 66.4871L182.982 69.298C182.491 67.6917 181.621 66.4201 180.372 65.4832C179.167 64.5016 177.561 64.0108 175.553 64.0108C172.876 64.0108 170.846 64.8585 169.463 66.554C168.125 68.2048 167.455 70.3688 167.455 73.0458V79.2699C167.455 81.9469 168.125 84.1332 169.463 85.8286C170.846 87.4795 172.876 88.3049 175.553 88.3049C177.695 88.3049 179.39 87.7918 180.64 86.7656C181.934 85.6948 182.96 84.2893 183.718 82.5493L189.273 85.494C188.113 88.3495 186.373 90.5357 184.053 92.0527C181.733 93.5697 178.9 94.3282 175.553 94.3282Z" fill="white"/>
<path d="M218.37 93.5251C216.452 93.5251 214.979 92.9897 213.953 91.9189C212.927 90.8034 212.302 89.398 212.079 87.7025H211.745C211.075 89.8888 209.848 91.5396 208.064 92.6551C206.279 93.7705 204.115 94.3282 201.572 94.3282C197.958 94.3282 195.169 93.3912 193.206 91.5173C191.288 89.6434 190.328 87.1225 190.328 83.9547C190.328 80.4746 191.578 77.8645 194.076 76.1244C196.619 74.3843 200.323 73.5143 205.186 73.5143H211.477V70.5695C211.477 68.4279 210.897 66.7771 209.737 65.617C208.577 64.457 206.77 63.877 204.316 63.877C202.263 63.877 200.59 64.3231 199.296 65.2155C198.002 66.1078 196.909 67.2456 196.017 68.6287L191.667 64.6801C192.827 62.7169 194.455 61.1107 196.552 59.8614C198.649 58.5675 201.393 57.9206 204.784 57.9206C209.291 57.9206 212.748 58.9691 215.158 61.0661C217.567 63.1631 218.772 66.1747 218.772 70.1011V87.5687H222.453V93.5251H218.37ZM203.647 88.7734C205.922 88.7734 207.796 88.2826 209.268 87.301C210.741 86.2748 211.477 84.914 211.477 83.2185V78.1991H205.32C200.278 78.1991 197.757 79.7607 197.757 82.8839V84.0886C197.757 85.6502 198.27 86.8325 199.296 87.6356C200.367 88.3941 201.817 88.7734 203.647 88.7734Z" fill="white"/>
<path d="M233.685 93.5251C231.186 93.5251 229.312 92.9005 228.063 91.6512C226.858 90.3573 226.256 88.5726 226.256 86.2971V44H233.551V87.5687H238.369V93.5251H233.685Z" fill="white"/>
<path d="M255.647 94.3282C253.148 94.3282 250.917 93.9043 248.954 93.0566C246.991 92.2089 245.318 91.0042 243.935 89.4426C242.552 87.8364 241.481 85.9179 240.722 83.687C240.008 81.4115 239.652 78.8906 239.652 76.1244C239.652 73.3581 240.008 70.8596 240.722 68.6287C241.481 66.3532 242.552 64.4347 243.935 62.8731C245.318 61.2669 246.991 60.0399 248.954 59.1922C250.917 58.3444 253.148 57.9206 255.647 57.9206C258.19 57.9206 260.421 58.3667 262.339 59.2591C264.303 60.1514 265.931 61.4007 267.225 63.0069C268.519 64.5685 269.478 66.3978 270.103 68.4948C270.772 70.5918 271.107 72.845 271.107 75.2543V77.9983H247.214V79.136C247.214 81.8131 247.995 84.0216 249.557 85.7617C251.163 87.4571 253.438 88.3049 256.383 88.3049C258.525 88.3049 260.332 87.8364 261.804 86.8994C263.276 85.9625 264.526 84.6909 265.552 83.0847L269.835 87.301C268.541 89.4426 266.667 91.1604 264.213 92.4543C261.759 93.7036 258.904 94.3282 255.647 94.3282ZM255.647 63.6093C254.398 63.6093 253.237 63.8323 252.167 64.2785C251.14 64.7247 250.248 65.3493 249.49 66.1524C248.776 66.9555 248.218 67.9148 247.816 69.0302C247.415 70.1457 247.214 71.3727 247.214 72.7112V73.1796H263.41V72.5104C263.41 69.8334 262.719 67.6917 261.335 66.0855C259.952 64.4347 258.056 63.6093 255.647 63.6093Z" fill="white"/>
<path d="M79.2285 40H50.2285V99H107.229V68H101.229V93H56.2285V46H79.2285V40Z" fill="white"/>
<path d="M86.2285 46H96.9863L70.2285 72.7578V62H64.2285V83H85.2285V77H74.4716L101.229 50.2431V61H107.229V40H86.2285V46Z" fill="white"/>
</svg>
