<svg width="373" height="90" viewBox="0 0 373 90" fill="none" xmlns="http://www.w3.org/2000/svg">
<path d="M189.613 14.0014C182.932 17.9084 176.653 22.5563 170.774 27.9451C164.895 33.1993 159.149 38.5881 153.538 44.1117C150.331 47.2103 147.191 50.3763 144.118 53.6096C141.045 56.8429 137.972 60.0762 134.899 63.3096C133.295 65.1957 131.558 67.0818 129.688 68.9679C127.951 70.7193 126.214 72.6054 124.477 74.6262C127.283 73.9526 130.022 73.1442 132.694 72.2012C135.5 71.2581 138.039 70.4498 140.31 69.7762C142.314 69.372 144.452 68.8331 146.723 68.1595C148.995 67.4859 151.266 66.947 153.538 66.5429C155.809 66.004 158.08 65.7345 160.352 65.7345C162.757 65.5998 164.961 65.9366 166.966 66.745C169.504 67.688 171.041 69.3047 171.575 71.5949C171.976 73.0769 171.843 74.4915 171.174 75.8387C173.446 75.1651 175.65 74.4241 177.788 73.6158C180.06 72.8074 182.197 72.0665 184.202 71.3929C188.076 70.1804 191.951 68.9679 195.826 67.7554C199.701 66.4082 203.642 65.3304 207.651 64.5221C208.72 64.2526 209.989 64.1179 211.459 64.1179C213.062 63.9832 214.465 64.1179 215.667 64.5221C216.87 64.9262 217.738 65.6672 218.273 66.745C218.941 67.688 219.008 69.1026 218.473 70.9887C218.072 72.2012 217.271 73.2116 216.068 74.0199C214.866 74.6935 213.463 75.2324 211.859 75.6366C210.256 76.0408 208.653 76.3776 207.049 76.647C205.446 76.7817 204.177 76.9838 203.241 77.2533C198.699 78.6005 194.223 80.015 189.813 81.497C185.404 82.8442 180.995 84.1914 176.586 85.5386C174.314 86.2122 171.843 86.8859 169.17 87.5595C166.498 88.3678 163.959 88.5025 161.554 87.9636C160.619 87.8289 159.617 87.4247 158.548 86.7511C156.277 84.9997 155.208 83.3831 155.341 81.9012C155.475 80.4192 156.076 78.9373 157.145 77.4553H154.74C149.93 78.2637 145.12 79.2741 140.31 80.4866C136.435 81.5644 132.494 82.7768 128.485 84.1241C124.61 85.4713 120.602 86.347 116.46 86.7511C114.99 86.8858 113.521 86.6164 112.051 85.9428C110.581 85.4039 109.512 84.2588 108.844 82.5074C108.31 81.0255 108.31 79.6109 108.844 78.2637C109.379 76.7817 110.113 75.3671 111.049 74.0199C107.174 76.3102 103.5 78.2637 100.026 79.8803C96.6854 81.3623 94.1468 82.44 92.4098 83.1136C88.9359 84.5956 85.1947 86.1449 81.1864 87.7615C77.178 89.3782 73.1696 90.1192 69.1612 89.9844C64.752 89.715 62.0798 88.5025 61.1445 86.347C60.2092 84.1914 60.4096 81.497 61.7457 78.2637C62.9482 74.8956 64.8856 71.3255 67.5579 67.5533C70.2301 63.6464 73.036 59.9415 75.9755 56.4388C79.0486 52.936 81.8544 49.9048 84.3931 47.345C86.9317 44.6506 88.6019 42.8992 89.4035 42.0909L92.2094 39.2617C88.3346 39.2617 84.5267 39.2617 80.7855 39.2617C77.0444 39.2617 73.2364 39.3291 69.3616 39.4638C61.6121 39.7333 53.9294 40.1374 46.3135 40.6763C38.5639 41.0805 30.8144 41.6867 23.0649 42.4951C20.259 42.8992 17.52 43.3034 14.8477 43.7076C12.0418 43.977 9.23597 44.4485 6.43011 45.1221C5.76204 45.2569 5.02717 45.4589 4.2255 45.7284C3.42382 45.9978 2.68895 45.9978 2.02089 45.7284C0.55115 45.1895 -0.116913 44.2464 0.0167021 42.8992C0.0167021 41.4173 0.684764 40.4742 2.02089 40.0701C18.0544 35.8937 34.5556 33.2666 51.5244 32.1889C68.4932 30.9764 85.2615 30.2354 101.83 29.9659C105.303 26.7326 108.777 23.5667 112.251 20.4681C115.725 17.3695 119.266 14.2709 122.873 11.1723C124.61 9.55561 126.615 7.53479 128.886 5.1098C131.291 2.55009 133.696 0.93343 136.101 0.259823C137.437 -0.144345 138.573 -0.0769845 139.508 0.461903C140.577 0.866067 141.379 1.60704 141.913 2.68481C142.448 3.62786 142.648 4.70564 142.515 5.91813C142.381 7.13063 141.846 8.2084 140.911 9.15145C136.769 12.6542 132.694 16.157 128.686 19.6597C124.677 23.0278 120.736 26.5305 116.861 30.168C118.865 30.168 120.736 30.4375 122.473 30.9764C124.076 31.3805 125.479 32.0541 126.681 32.9972C128.018 33.9402 128.953 35.3548 129.487 37.2409C129.888 38.8576 129.688 40.2722 128.886 41.4847C128.084 42.5624 127.082 43.3708 125.88 43.9096C124.677 44.3138 123.408 44.3812 122.072 44.1117C120.869 43.7076 119.934 42.8319 119.266 41.4847C117.529 40.811 115.525 40.3395 113.253 40.0701C110.982 39.6659 108.844 39.4638 106.84 39.4638L104.836 41.2826C99.3577 46.5367 93.5455 52.195 87.3993 58.2575C81.3868 64.32 76.6435 70.854 73.1696 77.8595C77.846 76.9164 82.6561 75.5692 87.5998 73.8178C92.5434 72.0665 97.4203 70.113 102.23 67.9575C107.04 65.8019 111.784 63.5116 116.46 61.0867C121.137 58.5269 125.479 55.8999 129.487 53.2054C134.565 47.9513 139.709 42.8319 144.92 37.8472C150.264 32.7277 155.675 27.8104 161.154 23.0951C164.494 20.1313 167.901 17.2348 171.375 14.4056C174.849 11.5764 178.39 8.94937 181.997 6.52438C183.467 5.44661 185.07 4.773 186.807 4.50356C188.678 4.09939 190.214 4.84036 191.417 6.72647C192.085 7.93896 192.218 9.28617 191.818 10.7681C191.55 12.1153 190.815 13.1931 189.613 14.0014Z" fill="#2EB9FF"/>
<path d="M306.841 74.8283C303.768 75.0977 300.695 75.6366 297.622 76.4449C294.682 77.1185 291.676 77.7921 288.603 78.4657C280.586 80.3518 272.636 82.1706 264.753 83.922C256.87 85.5386 248.853 86.7511 240.703 87.5595C238.565 87.8289 236.293 88.031 233.888 88.1657C231.617 88.3004 229.279 88.2331 226.874 87.9636C224.602 87.6942 222.398 87.1553 220.26 86.347C218.122 85.6734 216.185 84.5956 214.448 83.1136C212.978 81.9012 211.842 80.4866 211.041 78.8699C210.105 77.2533 209.571 75.5692 209.437 73.8178C209.17 72.0665 209.304 70.3824 209.838 68.7658C210.373 67.0144 211.375 65.4651 212.844 64.1179C213.78 63.1748 215.249 62.4339 217.254 61.895C219.391 61.2214 221.73 60.7499 224.268 60.4804C226.807 60.211 229.346 60.1436 231.884 60.2783C234.423 60.413 236.627 60.8846 238.498 61.6929C240.369 62.5012 241.638 63.6464 242.306 65.1283C243.108 66.4755 243.041 68.2269 242.106 70.3824C241.304 71.9991 240.101 73.1442 238.498 73.8178C236.895 74.4915 235.091 74.963 233.087 75.2324C231.082 75.3671 229.011 75.3671 226.874 75.2324C224.736 74.963 222.865 74.6935 221.262 74.4241C221.796 74.963 222.865 75.4345 224.469 75.8387C226.072 76.1081 227.742 76.3102 229.479 76.4449C231.35 76.5796 233.02 76.647 234.49 76.647C236.093 76.647 237.095 76.647 237.496 76.647C244.043 76.1081 250.523 75.1651 256.937 73.8178C263.484 72.4706 269.964 71.0561 276.377 69.5741C281.054 68.4963 285.663 67.4186 290.206 66.3408C294.882 65.1283 299.559 64.2526 304.235 63.7137C306.24 63.579 307.91 64.0505 309.246 65.1283C310.582 66.2061 311.45 67.4859 311.851 68.9679C312.252 70.3151 312.052 71.5949 311.25 72.8074C310.582 74.0199 309.112 74.6935 306.841 74.8283Z" fill="#2EB9FF"/>
<path d="M367.331 74.8283C360.517 74.963 353.569 75.1651 346.488 75.4345C339.406 75.5692 332.458 74.7609 325.644 73.0095C325.11 73.0095 324.575 72.8748 324.041 72.6054C323.239 74.8956 322.037 77.1185 320.433 79.2741C318.964 81.2949 317.293 83.0463 315.423 84.5282C313.552 86.0102 311.481 87.0879 309.21 87.7615C307.072 88.4352 304.934 88.5025 302.796 87.9636C300.792 87.4247 299.322 86.4143 298.387 84.9324C297.318 83.4505 296.717 81.7664 296.583 79.8803C296.45 77.9942 296.717 76.1081 297.385 74.222C297.92 72.3359 298.721 70.6519 299.79 69.17C301.527 67.0144 303.732 65.3977 306.404 64.32C309.076 63.2422 311.748 63.1075 314.421 63.9158C314.688 62.0297 315.757 60.5478 317.627 59.47C319.498 58.3922 321.502 58.5269 323.64 59.8742C325.644 61.0867 327.782 62.0297 330.053 62.7033C332.458 63.2422 334.93 63.579 337.469 63.7137C340.008 63.8484 342.479 63.9158 344.884 63.9158C347.423 63.7811 349.828 63.7137 352.099 63.7137C354.772 63.7137 357.644 63.579 360.717 63.3096C363.791 62.9054 366.596 63.1075 369.135 63.9158C370.605 64.4547 371.607 65.3304 372.141 66.5429C372.809 67.7554 373.01 68.9679 372.743 70.1804C372.609 71.3929 372.075 72.4706 371.139 73.4137C370.204 74.3567 368.935 74.8283 367.331 74.8283ZM307.406 77.4553C307.807 77.0512 308.609 76.8491 309.811 76.8491V75.0303C309.544 75.2998 309.143 75.6366 308.609 76.0408C308.074 76.3102 307.673 76.7817 307.406 77.4553Z" fill="#2EB9FF"/>
</svg>
